<?xml version="1.0" encoding="UTF-8"?>
<svg id="Layer_2" data-name="Layer 2" xmlns="http://www.w3.org/2000/svg" viewBox="0 0 798.11 689.71">
  <defs>
    <style>
      .cls-1 {
        fill: #043b59;
      }
    </style>
  </defs>
  <g id="Layer_1-2" data-name="Layer 1">
    <g>
      <polygon class="cls-1" points="659.46 388.52 639.08 417.85 639.08 484.07 639.08 624.32 639.08 683.73 679.4 683.73 734.64 683.73 734.64 484.07 734.64 388.52 734.64 317.62 734.64 280.3 691.35 342.61 659.46 388.52"/>
      <polygon class="cls-1" points="236.45 605.25 236.45 671.91 236.45 683.73 283.13 683.73 332 683.73 332 613.39 332 550.08 313.77 560.61 236.45 605.25"/>
      <polygon class="cls-1" points="791.38 3.88 734.64 36.57 731.43 38.42 639.9 91.15 639.08 91.62 633.71 94.72 636.33 96.29 639.08 97.92 650.44 104.7 675.16 119.42 654.18 149.62 639.08 171.35 593.79 236.54 533.41 323.47 526.2 333.85 488.21 388.52 483.58 395.18 479.06 388.52 465.67 368.79 462.64 364.32 456.46 355.21 437.26 326.92 411.87 289.52 388.92 255.69 335.12 176.41 332 178.22 252.15 224.32 236.45 233.38 0 369.9 0 388.52 0 480.23 0 484.07 74.89 484.07 165.06 484.07 0 579.37 0 631.43 0 637.65 0 689.71 236.45 553.19 332 498.03 332 484.07 332 445.97 332 439.75 332 388.52 332 387.69 330.56 388.52 240.39 388.52 236.45 388.52 158.84 388.52 236.45 343.72 305.95 303.59 328.91 337.42 332 341.98 354.29 374.82 363.59 388.52 379.67 412.23 382.7 416.69 398.04 439.3 408.09 454.1 425.17 479.27 428.43 484.07 433.47 491.5 452.3 519.24 455.54 524.01 482.66 563.99 538.18 484.07 541.08 479.9 599.69 395.53 604.56 388.52 639.08 338.83 660.07 308.61 720.46 221.69 727.67 211.31 734.64 201.28 757.43 168.46 779.3 181.5 784.6 184.66 796.26 191.6 798.11 192.71 798.11 188.94 798.11 176.86 798.11 170.64 798.11 118.58 798.11 109.92 798.11 66.52 798.11 30.9 798.11 21.46 798.11 19.44 798.11 15.54 798.11 0 791.38 3.88"/>
    </g>
  </g>
</svg>
